<?xml version="1.0" encoding="utf-8"?>
<!-- Generator: Adobe Illustrator 16.0.0, SVG Export Plug-In . SVG Version: 6.00 Build 0)  -->
<!DOCTYPE svg PUBLIC "-//W3C//DTD SVG 1.1//EN" "http://www.w3.org/Graphics/SVG/1.1/DTD/svg11.dtd">
<svg version="1.1" id="圖層_1" xmlns="http://www.w3.org/2000/svg" xmlns:xlink="http://www.w3.org/1999/xlink" x="0px" y="0px"
	 width="19.373px" height="18.046px" viewBox="0 0 19.373 18.046" enable-background="new 0 0 19.373 18.046" xml:space="preserve">
<g>
	<g>
		<rect x="0.9" y="0.916" fill="#529C35" width="17.588" height="16.47"/>
		<path fill="#00261B" d="M0,1.02v16.007c0,0.563,0.457,1.02,1.02,1.02h17.336c0.563,0,1.018-0.456,1.018-1.02V1.02
			c0-0.563-0.455-1.02-1.018-1.02H1.019C0.457,0,0,0.456,0,1.02z M17.787,16.46H1.586V1.586h16.201V16.46z"/>
		<g>
			<path fill="#B8D440" d="M17.193,1.584H2.173c-0.319,0-0.58,0.261-0.58,0.58c0,0.318,0.261,0.579,0.58,0.579h15.02
				c0.32,0,0.58-0.261,0.58-0.579C17.773,1.845,17.514,1.584,17.193,1.584z"/>
			<path fill="#FFFFFF" d="M8.761,1.584H4.353c-0.319,0-0.58,0.261-0.58,0.58c0,0.318,0.261,0.579,0.58,0.579h4.408
				c0.318,0,0.579-0.261,0.579-0.579C9.34,1.845,9.08,1.584,8.761,1.584z"/>
		</g>
		<g>
			<path fill="#B8D440" d="M13.121,15.26H6.429c-0.318,0-0.58,0.261-0.58,0.579c0,0.319,0.262,0.58,0.58,0.58h6.691
				c0.319,0,0.58-0.261,0.58-0.58C13.701,15.521,13.44,15.26,13.121,15.26z"/>
			<path fill="#FFFFFF" d="M9.493,15.26H7.609c-0.318,0-0.579,0.261-0.579,0.579c0,0.319,0.261,0.58,0.579,0.58h1.884
				c0.319,0,0.579-0.261,0.579-0.58C10.072,15.521,9.812,15.26,9.493,15.26z"/>
		</g>
		<g>
			<path fill="#B8D440" d="M2.752,13.042V2.164c0-0.319-0.261-0.58-0.579-0.58c-0.319,0-0.58,0.261-0.58,0.58v10.878
				c0,0.318,0.261,0.579,0.58,0.579C2.492,13.621,2.752,13.36,2.752,13.042z"/>
			<path fill="#FFFFFF" d="M2.752,7.395V4.344c0-0.318-0.261-0.58-0.579-0.58c-0.319,0-0.58,0.262-0.58,0.58v3.051
				c0,0.319,0.261,0.58,0.58,0.58C2.492,7.975,2.752,7.714,2.752,7.395z"/>
			<path fill="#FFFFFF" d="M2.752,13.042v-0.946c0-0.318-0.261-0.58-0.579-0.58c-0.319,0-0.58,0.262-0.58,0.58v0.946
				c0,0.318,0.261,0.579,0.58,0.579C2.492,13.621,2.752,13.36,2.752,13.042z"/>
		</g>
		<g>
			<path fill="#B8D440" d="M16.615,13.042V2.164c0-0.319,0.26-0.58,0.578-0.58c0.32,0,0.58,0.261,0.58,0.58v10.878
				c0,0.318-0.26,0.579-0.58,0.579C16.875,13.621,16.615,13.36,16.615,13.042z"/>
			<path fill="#FFFFFF" d="M16.615,7.395V4.344c0-0.318,0.26-0.58,0.578-0.58c0.32,0,0.58,0.262,0.58,0.58v3.051
				c0,0.319-0.26,0.58-0.58,0.58C16.875,7.975,16.615,7.714,16.615,7.395z"/>
			<path fill="#FFFFFF" d="M16.615,13.042v-0.946c0-0.318,0.26-0.58,0.578-0.58c0.32,0,0.58,0.262,0.58,0.58v0.946
				c0,0.318-0.26,0.579-0.58,0.579C16.875,13.621,16.615,13.36,16.615,13.042z"/>
		</g>
	</g>
	<g>
		<path fill="#00261B" d="M9.687,15.226c-1.234,0-2.238-1.005-2.238-2.24L7.447,9.324l-1.66,0.001c-1.236,0-2.239-1.005-2.239-2.24
			C3.546,6.488,3.779,5.926,4.201,5.503s0.986-0.655,1.586-0.655l1.66-0.001v-0.66c0-1.236,1.004-2.24,2.238-2.24
			c1.235,0,2.24,1.003,2.24,2.236v0.662l1.66-0.001c1.234,0,2.238,1.005,2.24,2.24c0,1.235-1.004,2.239-2.239,2.239h-1.66
			l0.001,3.66c0,1.232-1.004,2.238-2.238,2.242H9.687z"/>
		<path fill="#00261B" d="M9.687,16.355c-1.234,0-2.238-1.004-2.238-2.239l-0.002-3.662l-1.66,0.002
			c-1.236,0-2.239-1.005-2.239-2.24C3.546,7.618,3.779,7.057,4.201,6.634s0.986-0.656,1.586-0.656l1.66-0.001v-0.66
			c0-1.235,1.004-2.24,2.238-2.24c1.235,0,2.24,1.004,2.24,2.237v0.662l1.66-0.001c1.234,0,2.238,1.005,2.24,2.24
			c0,1.235-1.004,2.238-2.239,2.238h-1.66l0.001,3.66c0,1.233-1.004,2.239-2.238,2.242H9.687z"/>
		<path fill="#FFFFFF" d="M13.586,5.692l-2.509,0.001V4.183c0-0.768-0.623-1.389-1.393-1.389c-0.768,0-1.391,0.621-1.391,1.391
			l0.001,1.509L5.787,5.695c-0.77,0-1.394,0.62-1.393,1.39c0,0.769,0.623,1.393,1.393,1.393l2.509-0.003l0.001,4.511
			c0,0.768,0.623,1.392,1.391,1.392c0.769-0.002,1.393-0.624,1.393-1.394l-0.002-4.509h2.509c0.769,0,1.392-0.621,1.392-1.39
			C14.978,6.315,14.353,5.692,13.586,5.692z"/>
	</g>
</g>
</svg>
