<?xml version="1.0" encoding="utf-8"?>
<!-- Generator: Adobe Illustrator 16.0.0, SVG Export Plug-In . SVG Version: 6.00 Build 0)  -->
<!DOCTYPE svg PUBLIC "-//W3C//DTD SVG 1.1//EN" "http://www.w3.org/Graphics/SVG/1.1/DTD/svg11.dtd">
<svg version="1.1" id="圖層_1" xmlns="http://www.w3.org/2000/svg" xmlns:xlink="http://www.w3.org/1999/xlink" x="0px" y="0px"
	 width="19.374px" height="18.046px" viewBox="0 0 19.374 18.046" enable-background="new 0 0 19.374 18.046" xml:space="preserve">
<g>
	<g>
		<rect x="0.901" y="0.916" fill="#529C35" width="17.588" height="16.47"/>
		<path fill="#00261B" d="M0,1.02v16.007c0,0.563,0.457,1.02,1.019,1.02h17.335c0.563,0,1.02-0.456,1.02-1.02V1.02
			c0-0.563-0.457-1.02-1.02-1.02H1.019C0.457,0,0,0.456,0,1.02z M17.787,16.46H1.586V1.586h16.202L17.787,16.46z"/>
		<g>
			<path fill="#B8D440" d="M17.194,1.584H2.173c-0.319,0-0.58,0.261-0.58,0.58c0,0.318,0.261,0.579,0.58,0.579h15.021
				c0.318,0,0.579-0.261,0.579-0.579C17.773,1.845,17.513,1.584,17.194,1.584z"/>
			<path fill="#FFFFFF" d="M8.761,1.584H4.353c-0.318,0-0.58,0.261-0.58,0.58c0,0.318,0.261,0.579,0.58,0.579h4.408
				c0.319,0,0.58-0.261,0.58-0.579C9.34,1.845,9.08,1.584,8.761,1.584z"/>
		</g>
		<g>
			<path fill="#B8D440" d="M13.121,15.26H6.429c-0.319,0-0.58,0.261-0.58,0.579c0,0.319,0.261,0.58,0.58,0.58h6.692
				c0.319,0,0.579-0.261,0.579-0.58C13.7,15.521,13.44,15.26,13.121,15.26z"/>
			<path fill="#FFFFFF" d="M9.493,15.26H7.609c-0.319,0-0.58,0.261-0.58,0.579c0,0.319,0.261,0.58,0.58,0.58h1.883
				c0.319,0,0.58-0.261,0.58-0.58C10.072,15.521,9.812,15.26,9.493,15.26z"/>
		</g>
		<g>
			<path fill="#B8D440" d="M2.752,13.042V2.164c0-0.319-0.261-0.58-0.58-0.58s-0.58,0.261-0.58,0.58v10.878
				c0,0.318,0.261,0.579,0.58,0.579S2.752,13.36,2.752,13.042z"/>
			<path fill="#FFFFFF" d="M2.752,7.395V4.344c0-0.318-0.261-0.58-0.58-0.58s-0.58,0.262-0.58,0.58v3.051
				c0,0.319,0.261,0.58,0.58,0.58S2.752,7.714,2.752,7.395z"/>
			<path fill="#FFFFFF" d="M2.752,13.042v-0.946c0-0.318-0.261-0.58-0.58-0.58s-0.58,0.262-0.58,0.58v0.946
				c0,0.318,0.261,0.579,0.58,0.579S2.752,13.36,2.752,13.042z"/>
		</g>
		<g>
			<path fill="#B8D440" d="M16.614,13.042V2.164c0-0.319,0.261-0.58,0.58-0.58c0.318,0,0.579,0.261,0.579,0.58v10.878
				c0,0.318-0.261,0.579-0.579,0.579C16.875,13.621,16.614,13.36,16.614,13.042z"/>
			<path fill="#FFFFFF" d="M16.614,7.395V4.344c0-0.318,0.261-0.58,0.58-0.58c0.318,0,0.579,0.262,0.579,0.58v3.051
				c0,0.319-0.261,0.58-0.579,0.58C16.875,7.975,16.614,7.714,16.614,7.395z"/>
			<path fill="#FFFFFF" d="M16.614,13.042v-0.946c0-0.318,0.261-0.58,0.58-0.58c0.318,0,0.579,0.262,0.579,0.58v0.946
				c0,0.318-0.261,0.579-0.579,0.579C16.875,13.621,16.614,13.36,16.614,13.042z"/>
		</g>
	</g>
	<g>
		<path fill="#00261B" d="M16.646,10.944c-0.16-0.934-0.678-1.764-1.42-2.32c0.086-0.245,0.131-0.506,0.131-0.769
			c0-1.281-1.042-2.323-2.324-2.323c-0.256,0-0.504,0.054-0.746,0.138c-0.589-0.798-1.533-1.318-2.598-1.318
			c-1.066,0-2.01,0.521-2.6,1.318C6.845,5.586,6.597,5.532,6.34,5.532c-1.281,0-2.323,1.042-2.323,2.323
			c0,0.263,0.046,0.523,0.132,0.769c-0.743,0.557-1.262,1.387-1.419,2.32l-0.017,0.093l0.005,0.094
			c0.045,0.854,0.75,1.523,1.603,1.523h0.043c-0.001,0.005-0.002,0.009-0.003,0.015l-0.015,0.092l0.004,0.093
			c0.056,1.105,0.966,1.972,2.071,1.972h6.533c1.104,0,2.012-0.866,2.069-1.971l0.005-0.094l-0.016-0.092
			c-0.002-0.006-0.003-0.01-0.004-0.015h0.045c0.855,0,1.559-0.67,1.602-1.526l0.006-0.093L16.646,10.944z"/>
		<path fill="#00261B" d="M13.901,11.524l-0.205-0.553c-0.355-0.954-1.029-1.753-1.9-2.247l-0.758-0.432l0.453-0.745
			c0.2-0.331,0.307-0.709,0.307-1.092c0-0.262-0.05-0.521-0.146-0.769l-0.299-0.756l0.743-0.33c0.298-0.133,0.614-0.2,0.937-0.2
			c1.282,0,2.324,1.042,2.324,2.324c0,0.263-0.045,0.522-0.131,0.768c0.742,0.557,1.26,1.387,1.42,2.321l0.016,0.09l-0.006,0.093
			c-0.043,0.856-0.746,1.527-1.602,1.527H13.901z"/>
		<path fill="#529ED1" d="M14.044,7.799c0.286-0.271,0.465-0.65,0.465-1.073c0-0.816-0.661-1.477-1.477-1.477
			c-0.21,0-0.41,0.047-0.594,0.127c0.133,0.335,0.207,0.698,0.207,1.08c0,0.54-0.151,1.071-0.43,1.531
			c1.051,0.598,1.854,1.559,2.275,2.688h0.563c0.404,0,0.736-0.32,0.756-0.721C15.64,8.964,14.957,8.15,14.044,7.799z"/>
		<path fill="#00261B" d="M4.322,11.524c-0.854,0-1.558-0.669-1.603-1.523L2.713,9.906L2.73,9.814
			C2.888,8.88,3.406,8.05,4.149,7.493C4.063,7.248,4.017,6.988,4.017,6.726c0-1.282,1.042-2.324,2.323-2.324
			c0.324,0,0.64,0.067,0.939,0.2l0.742,0.33L7.724,5.687c-0.098,0.249-0.148,0.509-0.148,0.77c0,0.383,0.107,0.761,0.308,1.092
			l0.451,0.746L7.577,8.725C6.706,9.22,6.033,10.018,5.681,10.97l-0.204,0.555H4.322z"/>
		<path fill="#654B94" d="M7.159,7.987C6.88,7.527,6.728,6.996,6.728,6.456c0-0.382,0.075-0.745,0.207-1.08
			C6.752,5.296,6.553,5.249,6.34,5.249c-0.814,0-1.475,0.66-1.475,1.477c0,0.423,0.179,0.803,0.466,1.073
			C4.417,8.15,3.733,8.964,3.565,9.955c0.021,0.4,0.351,0.721,0.756,0.721h0.564C5.303,9.546,6.107,8.585,7.159,7.987z"/>
		<path fill="#00261B" d="M6.421,13.694c-1.105,0-2.015-0.865-2.071-1.972L4.346,11.63l0.015-0.092
			C4.619,10.026,5.517,8.7,6.789,7.887C6.57,7.445,6.452,6.955,6.452,6.456c0-1.784,1.452-3.234,3.236-3.234
			c1.783,0,3.233,1.45,3.233,3.234c0,0.5-0.117,0.99-0.335,1.431c1.271,0.813,2.17,2.141,2.427,3.651l0.016,0.092l-0.005,0.094
			c-0.058,1.105-0.966,1.971-2.069,1.971H6.421z"/>
		<path fill="#354D97" d="M11.321,8.191c0.465-0.434,0.752-1.05,0.752-1.735c0-1.319-1.068-2.387-2.385-2.387
			C8.369,4.069,7.3,5.137,7.3,6.456c0,0.686,0.292,1.302,0.753,1.735c-1.479,0.57-2.583,1.888-2.856,3.488
			c0.033,0.651,0.566,1.167,1.224,1.167h6.533c0.656,0,1.189-0.516,1.223-1.167C13.905,10.079,12.799,8.762,11.321,8.191z"/>
	</g>
</g>
</svg>
