<?xml version="1.0" encoding="utf-8"?>
<!-- Generator: Adobe Illustrator 16.0.0, SVG Export Plug-In . SVG Version: 6.00 Build 0)  -->
<!DOCTYPE svg PUBLIC "-//W3C//DTD SVG 1.1//EN" "http://www.w3.org/Graphics/SVG/1.1/DTD/svg11.dtd">
<svg version="1.1" id="圖層_1" xmlns="http://www.w3.org/2000/svg" xmlns:xlink="http://www.w3.org/1999/xlink" x="0px" y="0px"
	 width="19.373px" height="18.046px" viewBox="0 0 19.373 18.046" enable-background="new 0 0 19.373 18.046" xml:space="preserve">
	<g>
		<g>
			<rect x="0.9" y="0.916" fill="#529C35" width="17.588" height="16.47"/>
			<path fill="#00261B" d="M0,1.02v16.007c0,0.563,0.457,1.02,1.02,1.02h17.335c0.563,0,1.019-0.456,1.019-1.02V1.02
				c0-0.563-0.455-1.02-1.019-1.02H1.02C0.457,0,0,0.456,0,1.02z M17.787,16.46H1.586V1.586h16.201V16.46z"/>
			<g>
				<path fill="#B8D440" d="M17.193,1.584H2.173c-0.319,0-0.579,0.261-0.579,0.58c0,0.318,0.26,0.579,0.579,0.579h15.021
					c0.319,0,0.58-0.261,0.58-0.579C17.773,1.845,17.513,1.584,17.193,1.584z"/>
				<path fill="#FFFFFF" d="M8.761,1.584H4.353c-0.318,0-0.579,0.261-0.579,0.58c0,0.318,0.261,0.579,0.579,0.579h4.408
					c0.319,0,0.579-0.261,0.579-0.579C9.34,1.845,9.08,1.584,8.761,1.584z"/>
			</g>
			<g>
				<path fill="#B8D440" d="M13.121,15.26H6.43c-0.319,0-0.58,0.261-0.58,0.579c0,0.319,0.261,0.58,0.58,0.58h6.691
					c0.318,0,0.58-0.261,0.58-0.58C13.701,15.521,13.439,15.26,13.121,15.26z"/>
				<path fill="#FFFFFF" d="M9.492,15.26H7.609c-0.318,0-0.58,0.261-0.58,0.579c0,0.319,0.262,0.58,0.58,0.58h1.883
					c0.319,0,0.58-0.261,0.58-0.58C10.072,15.521,9.812,15.26,9.492,15.26z"/>
			</g>
			<g>
				<path fill="#B8D440" d="M2.752,13.042V2.164c0-0.319-0.26-0.58-0.579-0.58s-0.579,0.261-0.579,0.58v10.878
					c0,0.318,0.26,0.579,0.579,0.579S2.752,13.36,2.752,13.042z"/>
				<path fill="#FFFFFF" d="M2.752,7.396V4.344c0-0.319-0.26-0.579-0.579-0.579s-0.579,0.26-0.579,0.579v3.052
					c0,0.318,0.26,0.579,0.579,0.579S2.752,7.714,2.752,7.396z"/>
				<path fill="#FFFFFF" d="M2.752,13.042v-0.946c0-0.318-0.26-0.579-0.579-0.579s-0.579,0.261-0.579,0.579v0.946
					c0,0.318,0.26,0.579,0.579,0.579S2.752,13.36,2.752,13.042z"/>
			</g>
			<g>
				<path fill="#B8D440" d="M16.614,13.042V2.164c0-0.319,0.261-0.58,0.579-0.58c0.319,0,0.58,0.261,0.58,0.58v10.878
					c0,0.318-0.261,0.579-0.58,0.579C16.875,13.621,16.614,13.36,16.614,13.042z"/>
				<path fill="#FFFFFF" d="M16.614,7.396V4.344c0-0.319,0.261-0.579,0.579-0.579c0.319,0,0.58,0.26,0.58,0.579v3.052
					c0,0.318-0.261,0.579-0.58,0.579C16.875,7.975,16.614,7.714,16.614,7.396z"/>
				<path fill="#FFFFFF" d="M16.614,13.042v-0.946c0-0.318,0.261-0.579,0.579-0.579c0.319,0,0.58,0.261,0.58,0.579v0.946
					c0,0.318-0.261,0.579-0.58,0.579C16.875,13.621,16.614,13.36,16.614,13.042z"/>
			</g>
		</g>
		<g>
			<circle fill="#221F20" cx="9.626" cy="9.738" r="5.346"/>
			<circle fill="#221F20" cx="2.232" cy="12.62" r="1.332"/>
			<g>
				<g>
					<circle fill="#821A1F" cx="9.593" cy="7.791" r="4.829"/>
					<circle fill="#821A1F" cx="9.593" cy="8.303" r="4.829"/>
					<path fill="#F9F1A1" d="M9.594,11.392c-1.985,0-3.601-1.615-3.601-3.601c0-1.984,1.615-3.6,3.601-3.6c1.984,0,3.6,1.615,3.6,3.6
						C13.193,9.776,11.578,11.392,9.594,11.392z"/>
					<path fill="#FFFFFF" d="M9.594,9.344c-1.421,0-2.576-1.155-2.576-2.576s1.155-2.576,2.576-2.576c1.42,0,2.576,1.155,2.576,2.576
						S11.014,9.344,9.594,9.344z"/>
					<path fill="#F5C01C" d="M9.594,10.367c-1.421,0-2.576-1.155-2.576-2.576s1.155-2.576,2.576-2.576
						c1.42,0,2.576,1.155,2.576,2.576S11.014,10.367,9.594,10.367z"/>
					<circle fill="#FFFFFF" cx="12.692" cy="7.791" r="0.512"/>
					<circle fill="#FFFFFF" cx="6.505" cy="7.791" r="0.512"/>
					<path fill="#FFFFFF" d="M8.363,7.791c-0.131,0-0.262-0.05-0.361-0.149c-0.2-0.2-0.2-0.524,0-0.725l0.951-0.951
						c0.2-0.2,0.524-0.2,0.725,0c0.199,0.199,0.199,0.523,0,0.724L8.726,7.642C8.625,7.741,8.494,7.791,8.363,7.791z"/>
				</g>
				<circle fill="#FFFFFF" cx="13.204" cy="5.215" r="1.768"/>
			</g>
		</g>
	</g>
</svg>
